<?xml version="1.0" standalone="no"?>
<!DOCTYPE svg PUBLIC "-//W3C//DTD SVG 20010904//EN"
 "http://www.w3.org/TR/2001/REC-SVG-20010904/DTD/svg10.dtd">
<svg version="1.0" xmlns="http://www.w3.org/2000/svg"
 width="310.000000pt" height="310.000000pt" viewBox="0 0 310.000000 310.000000"
 preserveAspectRatio="xMidYMid meet">
<metadata>
Created by potrace 1.11, written by Peter Selinger 2001-2013
</metadata>
<g transform="translate(0.000000,310.000000) scale(0.100000,-0.100000)"
fill="#000000" stroke="none">
<path d="M1280 2741 c-19 -19 -30 -31 -23 -28 6 4 10 1 9 -7 -3 -21 -27 -47
-37 -40 -5 3 -9 0 -9 -5 0 -6 8 -11 18 -11 13 0 14 -2 4 -9 -8 -4 -13 -10 -11
-12 5 -10 -13 -49 -22 -44 -5 4 -6 -2 -2 -11 5 -14 3 -16 -13 -11 -18 7 -18 6
-1 -7 17 -13 25 -32 9 -22 -5 3 -9 -1 -9 -9 0 -8 4 -12 9 -9 4 3 8 0 8 -5 0
-6 -5 -11 -11 -11 -8 0 -7 -6 2 -17 7 -10 9 -15 5 -11 -13 11 -39 -29 -30 -45
5 -7 0 -6 -11 3 -13 10 -16 11 -11 2 5 -8 1 -19 -10 -28 -11 -9 -14 -13 -7
-10 7 4 11 -1 10 -13 -1 -16 -4 -18 -22 -9 -17 10 -18 9 -7 -4 10 -13 10 -17
-3 -21 -11 -5 -13 -12 -5 -32 5 -14 6 -25 2 -25 -4 0 0 -5 8 -11 13 -9 13 -10
0 -6 -8 2 -14 10 -12 16 1 7 -2 10 -8 6 -8 -5 -8 -11 -1 -19 7 -9 7 -16 0 -23
-7 -7 -5 -14 6 -23 14 -11 13 -14 -2 -27 -10 -8 -11 -11 -3 -7 12 7 13 5 3 -8
-7 -8 -9 -19 -5 -23 4 -5 1 -5 -5 -1 -7 4 -13 2 -13 -4 0 -6 -5 -8 -11 -4 -7
4 -7 -1 1 -16 7 -12 8 -20 2 -16 -5 3 -13 -1 -16 -10 -4 -9 -2 -13 5 -8 7 4
10 1 7 -7 -3 -8 -1 -24 3 -36 5 -14 4 -25 -3 -29 -7 -4 -8 -3 -4 4 4 7 2 12
-3 12 -14 0 -14 -17 -1 -25 8 -5 7 -11 -1 -21 -6 -7 -9 -20 -6 -28 4 -11 1
-13 -10 -9 -12 5 -15 2 -10 -10 3 -9 2 -17 -3 -17 -6 0 -9 -3 -9 -7 3 -18 -2
-36 -8 -30 -3 4 -11 -1 -18 -9 -9 -13 -16 -14 -32 -6 -16 9 -28 7 -56 -8 -21
-11 -40 -20 -44 -21 -5 0 -7 -7 -5 -16 2 -8 -1 -12 -7 -8 -6 3 -11 -2 -11 -12
0 -15 -2 -16 -10 -3 -8 11 -9 7 -4 -14 6 -25 5 -28 -11 -22 -15 5 -16 4 -5 -9
7 -8 17 -12 24 -8 6 4 5 -1 -3 -10 -7 -9 -18 -14 -25 -10 -6 3 -6 0 2 -8 17
-18 15 -34 -2 -20 -11 9 -16 9 -22 0 -4 -7 -3 -9 3 -6 6 4 13 -2 16 -13 3 -11
2 -18 -3 -15 -8 5 -25 -42 -21 -58 0 -4 -9 -2 -21 4 -22 12 -22 11 -8 -6 8
-10 10 -16 3 -12 -6 4 -14 1 -16 -5 -4 -8 -6 -7 -6 4 -1 9 -5 19 -10 22 -5 4
-7 -2 -4 -12 2 -10 -3 -25 -13 -33 -16 -13 -16 -12 -6 8 12 21 11 22 -15 7
-34 -17 -53 -18 -53 -2 0 6 -3 8 -6 5 -4 -4 -1 -14 7 -23 13 -16 12 -16 -8 -6
-16 9 -24 9 -29 0 -4 -6 -3 -8 4 -4 6 3 13 2 17 -4 3 -5 -1 -10 -9 -10 -9 0
-16 -5 -16 -11 0 -5 5 -7 12 -3 6 4 8 3 5 -4 -6 -8 -42 -10 -42 -2 0 1 -8 3
-17 5 -10 2 -18 -1 -18 -7 0 -6 6 -8 13 -5 7 3 22 -2 32 -10 19 -15 19 -15 -4
-8 -18 6 -22 4 -15 -6 5 -9 -3 -7 -20 5 -16 10 -26 13 -22 8 10 -17 -17 -20
-46 -6 -26 13 -26 13 -22 -12 3 -15 1 -23 -5 -20 -5 4 -12 2 -16 -4 -3 -5 -11
-10 -16 -10 -5 0 -2 12 7 28 17 27 16 27 -10 -3 -19 -21 -26 -24 -22 -11 5 15
4 17 -7 8 -8 -7 -17 -9 -20 -5 -4 3 -7 1 -7 -6 0 -7 -5 -9 -11 -5 -8 4 -8 0 0
-15 14 -25 4 -27 -28 -5 -22 16 -22 16 -10 -4 7 -11 17 -18 21 -16 4 3 8 -2 8
-10 0 -9 -3 -16 -7 -16 -11 1 -43 26 -40 31 1 2 0 3 -2 1 -11 -6 -8 -30 3 -26
7 3 12 -4 12 -16 0 -11 -7 -20 -16 -20 -8 0 0 -8 18 -17 35 -17 41 -51 8 -45
-15 3 -16 1 -5 -11 10 -11 16 -12 22 -3 5 6 7 2 4 -11 -3 -15 -1 -20 9 -16 7
2 10 11 7 19 -4 10 0 12 11 8 9 -3 13 -10 10 -15 -3 -5 0 -8 7 -7 7 2 14 -6
16 -17 3 -16 2 -17 -6 -5 -9 13 -11 12 -11 -3 0 -10 -7 -20 -15 -23 -8 -4 -13
-10 -10 -14 3 -5 0 -12 -6 -16 -7 -4 -9 -3 -5 4 3 6 1 14 -6 18 -7 4 -10 4 -6
-1 4 -4 2 -15 -5 -23 -9 -13 -9 -14 1 -8 23 14 13 -41 -13 -67 -16 -16 -22
-28 -15 -32 6 -3 8 -10 5 -15 -3 -5 -7 -27 -9 -48 -1 -21 -6 -45 -11 -52 -6
-10 -4 -12 10 -6 15 5 16 4 5 -9 -8 -10 -9 -15 -2 -15 6 0 9 -7 6 -15 -4 -8
-1 -15 5 -15 6 0 8 -7 5 -15 -4 -8 1 -17 10 -21 9 -3 16 -10 16 -16 0 -5 -5
-6 -10 -3 -6 3 -10 1 -10 -4 0 -6 7 -11 15 -11 19 0 19 -7 1 -25 -7 -8 -17
-11 -20 -7 -4 3 -4 -1 0 -11 3 -9 11 -17 18 -17 6 0 4 -5 -4 -10 -13 -8 -13
-11 -1 -22 12 -11 13 -10 6 2 -5 8 -4 11 0 7 14 -12 15 -38 2 -30 -7 4 -6 0 1
-9 14 -17 42 -14 42 4 0 6 8 4 17 -3 14 -12 16 -12 9 0 -6 9 -5 12 5 9 8 -3
13 -12 11 -19 -1 -9 3 -8 12 4 12 16 15 16 26 2 11 -13 11 -16 -1 -13 -8 2
-13 -3 -11 -10 1 -8 -2 -11 -8 -7 -5 3 -10 1 -10 -4 0 -6 -8 -11 -17 -11 -15
0 -16 -2 -3 -10 13 -8 12 -10 -4 -10 -12 0 -16 -5 -12 -16 3 -8 2 -13 -2 -10
-5 3 -9 -1 -9 -9 0 -8 3 -14 6 -13 3 0 17 0 31 -1 20 -1 22 -3 10 -11 -8 -5
-10 -10 -4 -10 6 0 14 3 18 7 3 4 13 8 22 9 11 2 12 -1 5 -10 -7 -8 -5 -12 9
-12 10 0 17 3 14 7 -9 15 22 15 34 0 8 -9 11 -11 8 -5 -3 7 1 15 10 18 8 3 12
2 9 -4 -3 -6 2 -10 12 -10 15 0 16 -2 3 -10 -12 -8 -11 -10 8 -10 12 0 22 -6
22 -14 0 -8 5 -18 12 -22 7 -4 8 -3 4 4 -4 7 -3 12 3 12 5 0 12 -6 14 -12 4
-10 6 -10 6 0 1 10 5 10 17 -2 8 -9 20 -14 25 -11 8 5 13 -7 11 -26 -1 -3 5
-6 13 -6 8 0 12 3 10 7 -2 3 5 6 15 6 10 0 17 -3 15 -7 -3 -3 7 -11 21 -18 16
-7 22 -16 18 -24 -5 -7 -1 -6 10 2 16 13 17 13 14 -1 -1 -9 2 -16 7 -15 6 1 9
6 7 11 -2 5 5 3 14 -5 9 -8 20 -14 23 -14 3 0 5 -4 3 -9 -2 -5 4 -4 13 4 13
11 19 10 36 -6 19 -17 20 -17 13 1 -5 13 -4 16 4 11 7 -4 12 -13 12 -20 0 -7
10 -12 23 -12 12 1 21 -4 20 -10 -1 -7 6 -10 18 -7 12 4 26 -2 35 -13 9 -11
13 -13 9 -7 -4 8 -1 11 9 7 9 -3 15 -9 14 -12 0 -4 0 -14 1 -22 1 -13 2 -13
11 0 5 8 10 10 10 4 0 -7 7 -15 16 -18 8 -3 12 -2 9 3 -3 5 -1 12 5 16 6 4 8
10 5 14 -6 10 65 87 77 83 25 -7 44 18 43 56 -1 28 2 39 11 35 7 -2 15 5 19
16 3 12 11 21 16 21 6 0 8 4 5 9 -3 5 1 11 9 15 8 3 15 12 15 19 0 8 7 14 15
14 9 0 14 -6 11 -13 -4 -10 1 -11 17 -5 12 5 27 10 32 12 6 2 9 7 8 11 -4 11
51 -3 59 -15 6 -9 8 -8 8 2 0 8 7 11 20 8 11 -3 20 -1 20 5 0 5 5 6 10 3 6 -3
10 -2 10 3 0 5 10 9 23 8 12 0 21 4 20 9 -1 6 10 11 24 12 19 1 22 -1 12 -8
-10 -6 -10 -9 -1 -9 6 0 12 -8 12 -17 0 -15 2 -16 10 -3 7 10 10 11 10 2 0 -7
16 4 35 24 19 19 35 40 35 45 0 4 7 6 15 3 8 -4 15 -1 15 6 0 6 5 8 12 4 6 -4
17 1 24 11 8 10 22 19 33 20 11 1 28 8 38 16 17 13 17 13 3 -5 -27 -35 -22
-48 18 -42 20 3 38 5 40 6 2 0 0 6 -3 13 -4 6 1 3 9 -7 9 -11 16 -17 16 -13 0
4 10 3 21 -4 15 -8 19 -8 15 0 -4 6 -3 11 3 11 5 0 12 -6 14 -12 4 -10 6 -9 6
1 1 11 6 10 22 -5 11 -10 20 -14 19 -9 -6 30 1 38 16 19 8 -10 12 -13 9 -6 -6
11 -3 12 13 3 12 -6 24 -16 27 -21 3 -6 11 -10 16 -10 6 0 7 6 3 12 -5 9 -2 9
9 -1 9 -7 17 -10 17 -6 0 4 7 2 16 -5 8 -8 14 -9 12 -4 -2 5 0 9 3 9 4 0 17 9
30 20 12 11 19 14 15 8 -14 -25 21 -2 43 28 12 16 26 27 30 24 5 -3 12 2 15
11 3 8 10 12 16 9 12 -7 64 46 53 54 -15 11 -24 91 -11 91 4 0 13 12 19 26 8
22 6 30 -8 43 -10 9 -26 15 -37 13 -20 -4 -39 10 -42 33 -2 14 0 14 13 3 15
-12 15 -11 4 9 -10 20 -9 22 6 16 13 -5 15 -3 10 11 -4 10 -3 15 3 11 11 -7
32 29 22 39 -3 4 1 4 10 1 9 -4 18 0 21 9 4 9 14 16 23 16 10 0 14 3 11 7 -4
3 1 12 11 20 9 8 11 12 5 8 -8 -4 -13 1 -13 14 0 11 -5 23 -11 27 -8 5 -8 9 1
14 9 6 9 13 -2 31 -13 24 -58 69 -69 69 -3 0 -6 6 -6 14 0 11 5 12 25 3 13 -6
19 -13 13 -15 -15 -5 18 -31 39 -31 8 0 4 5 -9 10 l-24 9 23 25 c16 17 27 22
34 15 13 -13 26 -13 26 0 0 6 -5 9 -11 8 -6 -2 -13 2 -15 7 -2 6 5 11 16 11
11 0 20 -4 20 -9 0 -5 6 -4 13 2 8 6 17 8 21 4 3 -4 16 -7 28 -8 20 -2 20 -1
3 11 -10 8 -16 17 -12 20 4 4 15 1 24 -7 16 -12 17 -12 7 1 -16 21 -14 52 3
46 8 -3 11 -1 8 4 -3 6 -2 10 4 10 5 0 12 -5 14 -10 3 -6 4 -5 3 2 -2 7 -14
12 -27 10 -23 -2 -23 -2 -7 15 14 13 21 15 30 5 19 -19 30 -14 22 10 -6 21 -5
21 10 9 13 -11 20 -11 28 -3 19 19 32 14 17 -5 -11 -13 -8 -13 13 2 15 11 28
24 28 29 0 5 -7 2 -17 -5 -14 -12 -16 -12 -12 0 9 25 27 23 42 -5 9 -17 17
-23 21 -15 4 6 12 11 18 11 6 0 3 -10 -8 -22 -18 -20 -17 -20 14 2 18 13 30
30 28 36 -3 7 -1 14 4 16 5 2 10 10 12 18 2 8 8 19 13 23 6 5 0 5 -12 2 -17
-5 -22 -3 -17 8 2 7 -2 20 -10 27 -16 13 -13 30 5 30 6 0 8 -3 5 -8 -2 -4 3
-16 11 -27 14 -18 15 -18 9 -1 -5 14 -2 17 11 12 17 -6 16 -5 0 8 -14 11 -15
15 -5 19 7 2 5 3 -4 2 -16 -3 -34 23 -23 33 3 3 5 0 5 -8 0 -10 3 -10 15 0 10
9 15 9 15 1 0 -6 4 -11 8 -11 5 0 9 7 9 15 0 8 -4 12 -8 9 -4 -2 -10 2 -12 8
-4 10 -6 10 -6 1 -1 -7 -6 -13 -12 -13 -5 0 -7 6 -3 13 5 8 2 8 -9 -2 -22 -18
-22 -3 1 23 14 17 14 19 0 8 -13 -10 -17 -10 -22 0 -4 9 -5 9 -5 -2 2 -30 -1
-41 -11 -35 -5 3 -7 13 -3 23 3 11 -1 8 -12 -6 -11 -16 -23 -21 -36 -17 -13 4
-19 2 -19 -9 0 -9 5 -16 11 -16 5 0 7 5 3 12 -5 7 -3 8 5 3 20 -12 -3 -29 -24
-18 -9 6 -18 14 -18 19 -1 5 -15 9 -32 9 -16 0 -35 3 -41 7 -7 5 -24 2 -38 -6
-20 -10 -23 -15 -12 -19 8 -3 17 1 20 9 8 20 24 17 37 -7 9 -17 8 -20 -2 -14
-7 5 -10 4 -6 -2 4 -6 -1 -10 -11 -9 -9 0 -17 -6 -17 -14 0 -10 10 -15 31 -16
25 0 31 3 26 15 -6 17 -4 16 18 -13 8 -11 10 -17 5 -14 -6 4 -11 -2 -11 -12 0
-10 4 -16 9 -13 5 3 3 -4 -4 -16 -10 -14 -15 -17 -21 -8 -6 9 -8 8 -8 -2 0
-11 -4 -9 -15 5 -14 18 -15 18 -8 0 4 -13 2 -17 -7 -14 -8 2 -14 19 -15 39 0
20 -5 33 -12 32 -7 -2 -10 4 -7 12 4 9 0 15 -7 15 -11 0 -11 3 1 10 13 9 13
10 0 11 -8 1 -18 1 -22 0 -13 -2 -9 12 13 48 16 27 18 36 7 42 -7 5 -9 9 -3 9
5 0 4 5 -3 12 -15 15 -16 31 0 22 7 -5 8 -3 2 7 -16 27 -15 49 3 42 13 -5 15
-2 9 13 -6 15 -3 15 18 -5 15 -14 26 -19 26 -12 0 7 5 9 10 6 8 -5 8 -11 0
-20 -9 -11 -7 -12 9 -8 12 3 21 9 21 14 0 5 7 9 15 9 11 0 14 7 10 27 -2 16 1
30 8 35 9 6 9 8 0 8 -17 0 -17 25 0 38 13 11 52 -9 40 -21 -3 -4 1 -7 9 -7 9
0 18 -7 21 -14 4 -11 1 -13 -10 -9 -10 4 -14 2 -10 -4 4 -6 16 -13 27 -16 12
-3 18 -1 14 5 -4 6 -1 8 7 6 8 -3 13 -12 11 -19 -2 -10 1 -10 10 2 7 9 18 14
24 12 13 -4 39 71 30 86 -4 6 -2 11 4 11 8 0 9 15 4 46 -5 34 -4 45 5 40 6 -4
11 0 11 10 0 19 -54 71 -90 85 -13 6 -20 13 -15 17 13 9 17 32 6 32 -5 0 -9
27 -9 60 0 33 4 60 8 60 3 0 7 7 7 15 0 8 -4 15 -9 15 -5 0 -4 9 2 20 8 15 8
20 -2 20 -14 1 10 18 25 18 12 1 48 44 42 51 -4 3 -10 -1 -15 -9 -8 -13 -10
-13 -10 -1 0 12 -3 12 -12 3 -7 -7 -26 -12 -43 -11 -16 0 -25 3 -18 5 8 4 9
14 3 35 -5 17 -5 29 1 29 5 0 8 6 6 13 -1 6 5 12 13 11 9 -1 20 9 26 20 9 20
8 22 -18 18 -15 -2 -28 -9 -28 -14 0 -5 -4 -7 -10 -3 -5 3 -7 12 -3 20 3 8 0
15 -7 15 -6 0 -8 5 -5 10 3 6 2 10 -4 10 -5 0 -13 -9 -16 -20 -3 -11 -11 -20
-16 -20 -6 0 -7 6 -4 13 4 6 1 5 -7 -3 -7 -8 -31 -16 -53 -17 -22 -2 -42 -8
-43 -13 -2 -6 -8 -8 -13 -4 -5 3 -9 1 -9 -4 0 -5 -15 -15 -32 -23 -18 -7 -35
-16 -38 -21 -3 -4 -15 -9 -25 -11 -11 -2 -31 -9 -45 -14 -14 -6 -28 -9 -32 -6
-5 2 -8 -2 -8 -9 0 -9 -3 -9 -10 2 -5 8 -10 11 -10 7 0 -5 -7 -2 -15 5 -35 31
-42 34 -60 27 -11 -4 -14 -8 -7 -8 10 -1 10 -5 -2 -17 -14 -14 -14 -34 0 -34
3 0 2 5 -2 12 -4 7 -3 8 4 4 9 -5 9 -13 2 -26 -7 -13 -6 -20 3 -24 6 -3 1 -3
-13 0 -14 3 -30 13 -37 21 -12 15 -56 26 -106 27 -18 0 -26 4 -23 13 3 7 1 13
-5 13 -6 0 -7 5 -4 10 3 6 1 10 -4 10 -6 0 -11 -5 -11 -11 0 -5 -4 -7 -10 -4
-5 3 -10 2 -10 -4 0 -6 -7 -7 -17 -4 -10 4 -14 2 -10 -4 4 -6 -2 -13 -13 -16
-11 -3 -18 -1 -14 4 3 5 0 9 -6 9 -7 0 -10 6 -7 13 3 9 -3 13 -16 13 -12 -1
-22 5 -22 12 0 7 -15 26 -32 41 -18 16 -33 34 -33 40 0 17 -50 25 -63 11 -9
-10 -9 -11 3 -5 13 8 13 7 0 -9 -8 -11 -16 -14 -18 -7 -2 6 -10 11 -17 11 -8
0 -19 8 -25 18 -9 16 -11 15 -29 -5 -10 -12 -21 -19 -25 -16 -3 4 -6 -1 -6 -9
0 -9 -6 -19 -12 -21 -9 -4 -8 -6 2 -6 11 -1 8 -8 -10 -22 -14 -11 -18 -17 -10
-13 13 7 13 5 1 -9 -7 -9 -9 -17 -4 -17 5 0 10 -6 10 -14 0 -17 -10 -16 -64 9
-23 10 -40 22 -37 27 3 5 2 8 -3 7 -15 -2 -53 13 -53 22 0 5 -3 8 -7 7 -8 -1
-50 15 -85 33 -10 5 -26 9 -35 9 -33 1 -56 30 -43 55 3 7 7 22 9 36 0 5 5 8 9
5 4 -2 8 7 7 21 0 37 -24 35 -65 -6z m-157 -495 c4 -10 1 -13 -8 -9 -8 3 -12
9 -9 14 7 12 11 11 17 -5z m1612 -555 c-3 -6 -12 -8 -18 -5 -7 4 -8 3 -4 -1 9
-11 37 -16 36 -7 -1 4 -1 14 0 22 1 13 2 13 11 0 6 -10 4 -20 -6 -31 -13 -14
-13 -18 1 -29 19 -16 20 -34 1 -27 -8 3 -20 -2 -28 -11 -11 -13 -11 -14 1 -7
10 6 12 4 6 -5 -5 -8 -4 -11 3 -6 5 3 12 3 15 -1 2 -5 2 -2 1 5 -2 6 1 12 6
12 6 0 10 -5 10 -11 0 -5 6 -7 13 -3 8 5 7 2 -2 -9 -8 -10 -21 -15 -30 -12 -9
2 -23 0 -31 -6 -12 -9 -11 -10 6 -6 25 5 52 -8 40 -20 -5 -4 -11 -2 -13 5 -4
10 -8 10 -19 1 -11 -9 -18 -6 -33 12 l-19 24 -31 -29 c-24 -23 -33 -27 -45
-17 -16 14 -31 -1 -21 -21 4 -7 0 -5 -8 4 -13 17 -15 16 -34 -5 -10 -12 -19
-29 -18 -37 1 -8 -5 -23 -13 -32 -8 -10 -11 -22 -6 -30 6 -10 4 -10 -7 -3 -27
20 -75 11 -100 -19 l-24 -28 -28 22 c-15 12 -25 26 -21 31 3 5 9 7 14 4 4 -3
14 3 21 12 12 15 12 16 -6 10 -19 -7 -19 -6 -2 7 10 8 14 17 8 20 -8 5 -8 26
-1 46 1 3 2 9 1 13 -1 5 3 6 8 3 5 -4 12 -2 16 3 4 7 15 7 32 0 18 -7 30 -6
37 1 8 8 6 9 -6 5 -10 -4 -18 -3 -18 2 0 5 9 9 20 10 11 1 20 -3 20 -9 0 -6 3
-8 8 -4 4 4 7 13 7 19 0 5 6 12 13 15 6 2 12 -1 12 -7 0 -6 5 -11 11 -11 6 0
9 7 5 15 -4 12 -2 13 12 6 14 -7 40 -8 85 -2 4 1 6 6 5 12 -2 6 4 14 12 16 9
3 11 1 5 -4 -12 -9 -14 -28 -4 -37 3 -3 6 1 7 9 1 8 3 22 4 30 1 16 10 19 21
8 4 -3 1 -13 -6 -22 -10 -14 -10 -14 5 -3 9 7 18 9 20 5 3 -4 3 -2 1 5 -2 8 2
10 10 6 7 -5 6 0 -3 12 -14 18 -14 18 5 4 19 -14 19 -14 5 4 -9 12 -10 17 -2
12 18 -11 15 -1 -5 15 -15 12 -16 12 -8 -1 7 -12 6 -13 -6 -3 -15 12 -42 3
-39 -13 1 -5 -4 -10 -11 -13 -8 -2 -10 2 -6 12 3 9 2 19 -4 23 -7 4 -6 10 0
18 6 7 8 16 4 19 -3 4 -1 7 5 7 7 0 12 -4 12 -8 0 -19 42 -9 57 14 10 16 19
22 26 15 5 -5 6 -14 2 -20z m-98 7 c-10 -5 -14 -14 -11 -20 5 -7 1 -9 -9 -5
-10 4 -20 0 -26 -11 -6 -9 -11 -12 -11 -6 0 6 3 14 8 18 4 4 8 12 8 17 2 14 2
14 31 16 22 1 24 -1 10 -9z m-67 -38 c0 -5 -4 -10 -10 -10 -5 0 -10 5 -10 10
0 6 5 10 10 10 6 0 10 -4 10 -10z m117 -45 c0 -8 -4 -12 -9 -9 -4 3 -8 9 -8
15 0 5 4 9 8 9 5 0 9 -7 9 -15z m-2217 -113 c0 -12 32 -11 47 0 7 5 14 5 18
-2 4 -6 3 -10 -2 -9 -20 4 -24 -2 -12 -18 12 -15 12 -16 -1 -8 -22 14 -39 15
-47 3 -3 -6 -1 -8 4 -5 6 4 13 0 16 -8 4 -10 1 -12 -10 -8 -12 5 -14 3 -8 -7
5 -8 4 -11 -2 -7 -6 4 -17 -1 -24 -10 -12 -14 -12 -16 2 -11 11 5 16 1 15 -10
-1 -10 6 -16 16 -16 10 1 15 -2 12 -7 -3 -5 -12 -9 -20 -9 -8 0 -12 -5 -9 -10
4 -6 11 -7 17 -4 7 4 8 2 4 -5 -4 -6 -11 -9 -16 -6 -9 6 -23 -12 -26 -33 -1
-7 -8 -19 -14 -27 -11 -13 -17 -12 -44 7 -17 12 -33 26 -35 31 -2 5 -13 19
-24 30 -12 12 -23 31 -24 42 -2 14 -1 16 6 7 6 -11 13 -7 28 15 11 15 18 34
16 41 -5 14 31 13 53 -1 7 -4 14 0 17 8 4 8 15 12 27 10 23 -4 26 5 8 23 -9 9
-9 12 0 12 7 0 12 -4 12 -8z m944 -838 c3 -8 2 -12 -4 -9 -6 3 -10 10 -10 16
0 14 7 11 14 -7z"/>
<path d="M2689 1663 c-7 -10 -9 -15 -4 -10 12 10 46 -23 38 -37 -4 -6 0 -6 9
1 8 7 19 9 24 5 5 -4 1 2 -9 14 -9 11 -14 25 -10 30 5 5 4 6 -1 2 -5 -4 -15
-3 -21 2 -9 7 -16 5 -26 -7z m36 -13 c10 -11 16 -20 13 -20 -3 0 -13 9 -23 20
-10 11 -16 20 -13 20 3 0 13 -9 23 -20z"/>
<path d="M2634 1659 c-8 -14 14 -19 25 -6 8 10 7 14 -5 14 -8 0 -17 -4 -20 -8z"/>
<path d="M2707 1576 c-4 -10 -1 -13 8 -9 8 3 12 9 9 14 -7 12 -11 11 -17 -5z"/>
<path d="M2493 1554 c4 -7 0 -17 -8 -24 -8 -7 -15 -9 -15 -5 0 4 -6 3 -13 -3
-13 -11 -34 -11 -53 1 -20 12 -47 -33 -34 -58 12 -25 -14 -70 -34 -58 -6 4 -5
-1 3 -10 7 -9 17 -15 21 -12 5 3 10 2 13 -2 2 -5 2 -3 1 4 -2 7 1 15 6 18 6 4
10 0 10 -7 0 -7 7 -3 15 8 9 14 23 20 40 19 14 -2 27 1 31 6 3 5 9 7 14 4 10
-6 25 14 25 35 0 22 42 73 54 66 5 -4 13 -2 16 4 5 8 11 7 21 -1 15 -13 30 -7
21 8 -7 11 -77 10 -95 -1 -7 -4 -20 -2 -29 6 -9 7 -14 8 -10 2z m35 -36 c-13
-18 -23 -41 -23 -50 0 -10 -3 -17 -6 -15 -3 1 -14 -5 -24 -13 -11 -9 -16 -10
-11 -2 4 6 2 12 -3 12 -6 0 -11 -5 -11 -11 0 -6 -6 -9 -14 -6 -8 3 -20 -1 -27
-9 -6 -8 -14 -12 -17 -9 -3 3 -15 -3 -26 -12 l-21 -18 21 25 c18 22 22 39 14
55 -12 25 5 59 24 48 19 -12 45 -13 51 -3 4 6 10 8 15 5 4 -3 13 2 20 10 6 7
17 12 25 9 7 -3 16 -1 20 5 3 6 8 11 11 11 3 0 -5 -15 -18 -32z"/>
<path d="M2490 1515 c-7 -8 -16 -13 -20 -10 -5 3 -11 1 -15 -5 -7 -11 -33 -9
-52 3 -7 5 -13 7 -14 5 -6 -25 -6 -39 1 -43 5 -3 7 -15 5 -26 -4 -20 -3 -20
14 -5 10 9 21 13 24 10 4 -4 9 1 13 10 3 9 11 13 18 9 21 -13 34 -11 31 6 -1
9 4 23 12 33 8 9 10 18 5 22 -5 3 -15 -1 -22 -9z m5 -15 c-10 -11 -15 -20 -11
-20 4 0 4 -5 0 -11 -4 -7 -10 -7 -16 -1 -13 13 -40 3 -31 -12 3 -6 3 -8 -2 -4
-4 4 -14 3 -22 -4 -8 -6 -13 -7 -12 -2 1 5 0 11 -1 14 -8 22 -7 39 3 33 20
-12 46 -13 52 -3 4 6 10 8 15 5 4 -3 13 2 20 10 7 8 15 15 18 15 3 0 -3 -9
-13 -20z"/>
<path d="M2406 1468 c3 -5 10 -6 15 -3 13 9 11 12 -6 12 -8 0 -12 -4 -9 -9z"/>
<path d="M426 1455 c-5 -14 -9 -15 -21 -5 -12 10 -14 8 -10 -9 2 -14 -1 -18
-11 -14 -7 3 -12 9 -9 13 3 5 0 12 -7 16 -7 4 -10 4 -6 -1 6 -6 -22 -57 -42
-75 -3 -3 13 -23 34 -45 22 -22 34 -32 27 -23 -11 14 -10 17 8 15 12 -1 20 -6
17 -13 -2 -6 -1 -17 4 -24 6 -9 11 -7 19 9 7 11 9 21 5 21 -3 0 0 7 7 16 19
23 20 46 2 66 -15 17 -14 19 6 37 13 12 18 22 11 26 -5 3 -10 0 -10 -7 0 -11
-2 -10 -9 0 -6 11 -10 10 -15 -3z m4 -20 c-10 -13 -9 -19 5 -35 24 -26 11 -39
-15 -15 -16 14 -23 16 -32 7 -9 -9 -9 -15 1 -24 10 -11 11 -10 6 5 -9 22 1 22
31 -2 22 -17 22 -20 6 -27 -25 -11 -36 -11 -49 -1 -9 6 -13 5 -13 -3 0 -7 -8
-2 -19 11 -17 21 -17 25 -2 50 8 15 18 25 21 21 3 -4 13 -8 24 -10 14 -3 17 1
12 13 -3 9 -2 13 3 10 5 -3 12 -1 16 5 3 5 9 10 12 10 3 0 0 -7 -7 -15z"/>
<path d="M365 1399 c3 -4 -3 -10 -12 -13 -13 -5 -14 -9 -4 -19 7 -7 16 -13 22
-13 5 -1 10 -2 12 -4 1 -1 10 -3 19 -5 25 -5 31 10 11 26 -10 8 -14 9 -10 2
11 -18 -9 -25 -23 -8 -9 11 -10 19 -1 28 8 10 7 14 -4 14 -8 0 -12 -4 -10 -8z"/>
<path d="M410 1406 c0 -2 8 -10 18 -17 15 -13 16 -12 3 4 -13 16 -21 21 -21
13z"/>
<path d="M1240 2689 c0 -5 5 -7 10 -4 6 3 10 8 10 11 0 2 -4 4 -10 4 -5 0 -10
-5 -10 -11z"/>
<path d="M2524 1741 c4 -5 1 -12 -4 -14 -6 -3 -5 -4 2 -3 15 3 23 26 8 26 -6
0 -9 -4 -6 -9z"/>
<path d="M2577 1739 c7 -7 15 -10 18 -7 3 3 -2 9 -12 12 -14 6 -15 5 -6 -5z"/>
<path d="M2610 1740 c0 -5 5 -10 10 -10 6 0 10 5 10 10 0 6 -4 10 -10 10 -5 0
-10 -4 -10 -10z"/>
<path d="M2646 1738 c3 -4 9 -8 15 -8 5 0 9 4 9 8 0 5 -7 9 -15 9 -8 0 -12 -4
-9 -9z"/>
<path d="M2687 1739 c7 -7 15 -10 18 -7 3 3 -2 9 -12 12 -14 6 -15 5 -6 -5z"/>
<path d="M2542 1690 c-12 -19 -11 -20 8 -8 11 7 20 16 20 20 0 15 -15 8 -28
-12z"/>
<path d="M2561 1631 c-8 -5 -5 -13 9 -26 20 -18 29 -8 10 11 -7 7 -6 11 4 11
8 0 13 -4 10 -9 -3 -4 0 -8 6 -8 17 0 6 23 -12 26 -8 1 -21 -1 -27 -5z"/>
<path d="M670 1619 c0 -5 5 -7 10 -4 6 3 10 8 10 11 0 2 -4 4 -10 4 -5 0 -10
-5 -10 -11z"/>
<path d="M2813 1575 c0 -8 4 -12 9 -9 5 3 6 10 3 15 -9 13 -12 11 -12 -6z"/>
<path d="M2793 1528 c-1 -10 3 -18 9 -18 6 0 8 3 5 7 -4 3 -2 11 3 18 7 8 6
12 -3 12 -7 0 -14 -9 -14 -19z"/>
<path d="M2693 1502 c2 -12 6 -24 10 -28 3 -4 4 4 2 16 -6 30 -16 40 -12 12z"/>
<path d="M2760 1502 c0 -5 7 -9 15 -9 8 0 12 4 9 9 -3 4 -9 8 -15 8 -5 0 -9
-4 -9 -8z"/>
<path d="M2647 1479 c7 -7 15 -10 18 -7 3 3 -2 9 -12 12 -14 6 -15 5 -6 -5z"/>
<path d="M2550 1441 c0 -6 4 -12 8 -15 5 -3 9 1 9 9 0 8 -4 15 -9 15 -4 0 -8
-4 -8 -9z"/>
<path d="M2476 1382 c-3 -5 1 -9 9 -9 8 0 12 4 9 9 -3 4 -7 8 -9 8 -2 0 -6 -4
-9 -8z"/>
<path d="M2399 1353 c-13 -16 -12 -17 4 -4 9 7 17 15 17 17 0 8 -8 3 -21 -13z"/>
<path d="M283 1345 c0 -8 4 -15 9 -15 4 0 8 4 8 9 0 6 -4 12 -8 15 -5 3 -9 -1
-9 -9z"/>
<path d="M273 1295 c0 -7 6 -11 14 -8 7 3 13 6 13 8 0 2 -6 5 -13 8 -8 3 -14
-1 -14 -8z"/>
<path d="M289 1268 c-8 -7 -12 -12 -10 -11 2 2 9 -1 15 -7 8 -6 12 -3 12 11 0
10 -1 19 -1 19 -1 0 -8 -6 -16 -12z"/>
<path d="M340 1261 c0 -6 4 -12 8 -15 5 -3 9 1 9 9 0 8 -4 15 -9 15 -4 0 -8
-4 -8 -9z"/>
<path d="M2055 691 c-3 -5 -2 -12 3 -15 5 -3 9 1 9 9 0 17 -3 19 -12 6z"/>
</g>
</svg>
